<?xml version="1.0" encoding="UTF-8" standalone="no"?>
<svg
   xmlns:dc="http://purl.org/dc/elements/1.1/"
   xmlns:cc="http://creativecommons.org/ns#"
   xmlns:rdf="http://www.w3.org/1999/02/22-rdf-syntax-ns#"
   xmlns:svg="http://www.w3.org/2000/svg"
   xmlns="http://www.w3.org/2000/svg"
   xmlns:sodipodi="http://sodipodi.sourceforge.net/DTD/sodipodi-0.dtd"
   xmlns:inkscape="http://www.inkscape.org/namespaces/inkscape"
   viewBox="0 0 541.43182 547.19745"
   version="1.1"
   id="svg5096"
   sodipodi:docname="phi.svg"
   inkscape:version="0.92.4 (f8dce91, 2019-08-02)">
  <metadata
     id="metadata5102">
    <rdf:RDF>
      <cc:Work
         rdf:about="">
        <dc:format>image/svg+xml</dc:format>
        <dc:type
           rdf:resource="http://purl.org/dc/dcmitype/StillImage" />
        <dc:title></dc:title>
      </cc:Work>
    </rdf:RDF>
  </metadata>
  <defs
     id="defs5100" />
  <sodipodi:namedview
     pagecolor="#ffffff"
     bordercolor="#666666"
     borderopacity="1"
     objecttolerance="10"
     gridtolerance="10"
     guidetolerance="10"
     inkscape:pageopacity="0"
     inkscape:pageshadow="2"
     inkscape:window-width="1920"
     inkscape:window-height="1016"
     id="namedview5098"
     showgrid="false"
     inkscape:pagecheckerboard="true"
     inkscape:zoom="1.3687929"
     inkscape:cx="270.71591"
     inkscape:cy="273.59872"
     inkscape:window-x="0"
     inkscape:window-y="27"
     inkscape:window-maximized="1"
     inkscape:current-layer="svg5096" />
  <g
     transform="matrix(.31446 0 0 -.32614 -2083.5 2382.7)"
     id="g5094"
     style="fill:#008a3c;fill-opacity:1">
    <path
       d="m7581.3 5992.5c8.6665-102.67 72.666-154 192-154v-37h-576v37c119.33 0 183.33 51.334 192 154-176 0-316.67 47.334-422 142s-158.33 209.67-159 345c0 144.67 53.666 260 161 346s247.33 133 420 141c-8 102.67-72 154-192 154v37h576v-37c-119.33 0-183.33-51.333-192-154 190.67-6 335-56 433-150s147.33-206.33 148-337c0-135.33-52.667-250.33-158-345s-246.33-142-423-142zm-192 919c-114-6.667-203.33-42-268-106s-97-178.33-97-343c0-262.67 121.67-401 365-415v864zm192 0v-864c110 4.6665 198.33 38.666 265 102s100.33 178.67 101 346c0 263.33-122 402-366 416z"
       fill="currentColor"
       id="path5092"
       style="fill:#008a3c;fill-opacity:1" />
  </g>
</svg>
