<?xml version="1.0" standalone="no"?>
<!DOCTYPE svg PUBLIC "-//W3C//DTD SVG 20010904//EN"
 "http://www.w3.org/TR/2001/REC-SVG-20010904/DTD/svg10.dtd">
<svg version="1.0" xmlns="http://www.w3.org/2000/svg"
 width="547.000000pt" height="547.000000pt" viewBox="0 0 547.000000 547.000000"
 preserveAspectRatio="xMidYMid meet">
<metadata>
Created by potrace 1.11, written by Peter Selinger 2001-2013
</metadata>
<g transform="translate(0.000000,547.000000) scale(0.100000,-0.100000)"
fill="#000000" stroke="none">
<path d="M1830 4931 l0 -60 58 -6 c181 -19 269 -47 359 -116 92 -69 158 -195
178 -335 l6 -51 -93 -6 c-722 -47 -1319 -382 -1576 -884 -209 -408 -209 -961
-1 -1374 145 -290 448 -582 749 -723 246 -114 572 -186 848 -186 l74 0 -7 -42
c-38 -248 -174 -395 -407 -442 -42 -9 -102 -16 -133 -16 l-55 0 0 -60 0 -60
905 0 906 0 -3 58 -3 57 -80 6 c-170 13 -286 59 -376 149 -80 79 -122 172
-142 311 l-5 36 136 6 c632 29 1120 282 1440 745 186 270 276 633 243 979 -35
359 -171 654 -424 919 -131 138 -242 219 -412 304 -254 127 -537 198 -860 216
-64 4 -117 10 -120 13 -9 15 27 159 54 218 79 168 230 253 494 279 l58 6 -3
56 -3 57 -902 3 -903 2 0 -59z m600 -2157 l0 -1407 -77 7 c-198 18 -419 88
-570 182 -92 57 -212 173 -273 263 -174 259 -249 626 -222 1087 19 318 63 526
151 709 77 162 162 258 317 364 159 107 437 197 622 200 l52 1 0 -1406z m802
1387 c499 -86 797 -376 907 -882 34 -160 44 -304 38 -548 -18 -687 -187 -1032
-602 -1232 -148 -71 -373 -129 -507 -129 l-38 0 0 1405 0 1405 44 0 c24 0 95
-9 158 -19z"/>
</g>
</svg>
